<?xml version="1.0" encoding="utf-8"?>
<!-- Generator: Adobe Illustrator 15.1.0, SVG Export Plug-In . SVG Version: 6.00 Build 0)  -->
<!DOCTYPE svg PUBLIC "-//W3C//DTD SVG 1.1//EN" "http://www.w3.org/Graphics/SVG/1.1/DTD/svg11.dtd">
<svg version="1.1" id="Layer_1" xmlns="http://www.w3.org/2000/svg" xmlns:xlink="http://www.w3.org/1999/xlink" x="0px" y="0px"
	 width="26px" height="26px" viewBox="0 0 26 26" enable-background="new 0 0 26 26" xml:space="preserve">
<g>
	<g>
		<path fill="#FFFFFF" d="M19.31,11.937l5.323-3.727C18.355,3.324,9.276,4.068,3.889,10.083C1.381,12.884,0.097,16.354,0,19.84
			c0.517-1.92,1.479-3.752,2.896-5.334C7.135,9.773,14.034,8.838,19.31,11.937z"/>
	</g>
	<g>
		<path fill="#FFFFFF" d="M14.297,16.411c-1.967,1.374-3.545,2.498-3.84,2.77c-0.879,0.811-0.899,2.141-0.045,2.971
			c0.855,0.83,2.261,0.846,3.14,0.035c0.286-0.263,1.448-1.644,2.887-3.387L26,8.218L14.297,16.411z"/>
	</g>
</g>
</svg>
