<?xml version="1.0" encoding="utf-8"?>
<!-- Generator: Adobe Illustrator 15.1.0, SVG Export Plug-In . SVG Version: 6.00 Build 0)  -->
<!DOCTYPE svg PUBLIC "-//W3C//DTD SVG 1.1//EN" "http://www.w3.org/Graphics/SVG/1.1/DTD/svg11.dtd">
<svg version="1.1" id="Layer_1" xmlns="http://www.w3.org/2000/svg" xmlns:xlink="http://www.w3.org/1999/xlink" x="0px" y="0px"
	 width="26px" height="26px" viewBox="0 0 26 26" enable-background="new 0 0 26 26" xml:space="preserve">
<g>
	<g>
		<g>
			<path fill="#FFFFFF" d="M23.92,2H2.08C0.936,2,0,2.936,0,4.08v14.638v0.126v0.134c0,1.143,0.936,2.079,2.08,2.079h21.84
				c1.144,0,2.08-0.937,2.08-2.079v-0.134v-0.126V4.08C26,2.936,25.063,2,23.92,2z M23.92,18.457H2.08V4.08h21.84V18.457z"/>
			<path fill="#FFFFFF" d="M16.631,22.115H9.368c-0.142,0-0.259,0.118-0.259,0.26v1.561c0,0.144,0.118,0.26,0.259,0.26h7.263
				c0.144,0,0.26-0.116,0.26-0.26v-1.561C16.891,22.233,16.774,22.115,16.631,22.115z"/>
		</g>
	</g>
	<g>
		<path fill="#FFFFFF" d="M16.76,11.676c-0.002,0.003-0.003,0.005-0.003,0.008c-0.002,0.005-0.021-0.096-0.041-0.224
			c-0.062-0.426-0.115-0.971-0.155-1.39c-0.188-1.973-0.335-3.529-1.289-3.529c-0.839,0-0.989,1.192-1.278,4.131
			c-0.111,1.134-0.304,3.087-0.583,3.875c-0.043,0.121-0.155,0.125-0.209,0.007c-0.082-0.18-0.185-0.472-0.295-0.937
			c-0.172-0.731-0.307-1.626-0.435-2.493c-0.323-2.175-0.468-3.167-1.202-3.167c-0.794,0-0.953,1.203-1.217,3.197
			c-0.068,0.52-0.159,1.204-0.259,1.709c-0.026,0.127-0.08,0.129-0.112,0.003c-0.044-0.17-0.081-0.342-0.11-0.47
			c-0.173-0.778-0.335-1.513-0.965-1.513H6.562c-0.13,0-0.236,0.106-0.236,0.236v0.473c0,0.129,0.106,0.235,0.236,0.235h1.647
			c0.131,0,0.274,0.1,0.309,0.224c0.048,0.173,0.094,0.385,0.13,0.548c0.185,0.837,0.395,1.785,1.159,1.785
			c0.77,0,0.915-1.104,1.181-3.107c0.061-0.456,0.136-1.031,0.222-1.515c0.023-0.128,0.065-0.128,0.089,0
			c0.086,0.469,0.17,1.029,0.239,1.5c0.417,2.806,0.745,4.509,1.795,4.509c1.057,0,1.286-1.809,1.6-5.007
			c0.082-0.833,0.192-1.955,0.329-2.679c0.023-0.127,0.072-0.127,0.099,0c0.122,0.614,0.207,1.505,0.262,2.074
			c0.17,1.788,0.264,2.772,0.991,2.772c0.685,0,0.909-0.601,1.031-0.924c0.009-0.026,0.021-0.058,0.032-0.09
			c0.02-0.051,0.144-0.09,0.274-0.09h1.196c0.15-0.312,0.321-0.612,0.506-0.903c-0.037-0.024-0.078-0.042-0.125-0.042h-1.924
			C17.057,10.883,16.87,11.38,16.76,11.676z"/>
	</g>
</g>
</svg>
