<?xml version="1.0" encoding="utf-8"?>
<!-- Generator: Adobe Illustrator 15.1.0, SVG Export Plug-In . SVG Version: 6.00 Build 0)  -->
<!DOCTYPE svg PUBLIC "-//W3C//DTD SVG 1.1//EN" "http://www.w3.org/Graphics/SVG/1.1/DTD/svg11.dtd">
<svg version="1.1" id="Layer_1" xmlns="http://www.w3.org/2000/svg" xmlns:xlink="http://www.w3.org/1999/xlink" x="0px" y="0px"
	 width="26px" height="26px" viewBox="0 0 26 26" enable-background="new 0 0 26 26" xml:space="preserve">
<g>
	<g>
		<path fill="#FFFFFF" d="M1.028,17.654c-0.087,0-0.177-0.02-0.261-0.061c-0.291-0.145-0.41-0.498-0.266-0.789l1.945-6.371
			c0.084-0.169,0.244-0.288,0.429-0.319c0.186-0.031,0.376,0.028,0.51,0.16l3.062,5.931l2.584-6.058
			c0.222-0.228,0.623-0.228,0.844,0l2.414,5.881l2.631-5.405c0.098-0.202,0.304-0.331,0.529-0.331l0,0
			c0.225,0,0.43,0.128,0.529,0.331l2.836,5.828h5.839c0.324,0,0.588,0.263,0.588,0.588s-0.264,0.589-0.588,0.589h-6.207
			c-0.225,0-0.43-0.129-0.528-0.331l-2.469-5.071l-2.47,5.071c-0.083,0.173-0.246,0.293-0.435,0.323
			c-0.189,0.029-0.382-0.033-0.515-0.17l-2.576-6.049l-2.576,6.049c-0.109,0.111-0.258,0.176-0.415,0.178
			C6.313,17.64,6.157,17.57,6.045,17.46l-2.904-5.776l-1.584,5.643C1.453,17.535,1.245,17.654,1.028,17.654z"/>
	</g>
	<g>
		<g>
			<polygon fill="#FFFFFF" points="22.311,19.036 24.307,17.04 22.311,15.045 24.005,15.045 26,17.04 24.005,19.036 			"/>
		</g>
	</g>
</g>
<g>
	<path fill="#FFFFFF" d="M0,19.516c0-0.718,0.231-1.289,0.942-1.289c0.71,0,0.941,0.571,0.941,1.289
		c0,0.717-0.231,1.299-0.941,1.299C0.231,20.814,0,20.232,0,19.516z M1.253,19.516c0-0.406-0.07-0.729-0.312-0.729
		c-0.242,0-0.312,0.322-0.312,0.729c0,0.408,0.07,0.738,0.312,0.738C1.183,20.254,1.253,19.924,1.253,19.516z"/>
</g>
<g>
	<path fill="#FFFFFF" d="M5.381,19.516c0-0.718,0.231-1.289,0.941-1.289c0.711,0,0.942,0.571,0.942,1.289
		c0,0.717-0.231,1.299-0.942,1.299C5.612,20.814,5.381,20.232,5.381,19.516z M6.635,19.516c0-0.406-0.07-0.729-0.312-0.729
		c-0.241,0-0.312,0.322-0.312,0.729c0,0.408,0.07,0.738,0.312,0.738C6.564,20.254,6.635,19.924,6.635,19.516z"/>
</g>
<g>
	<path fill="#FFFFFF" d="M11.522,19.516c0-0.718,0.23-1.289,0.942-1.289c0.71,0,0.941,0.571,0.941,1.289
		c0,0.717-0.231,1.299-0.941,1.299C11.753,20.814,11.522,20.232,11.522,19.516z M12.775,19.516c0-0.406-0.07-0.729-0.311-0.729
		c-0.242,0-0.312,0.322-0.312,0.729c0,0.408,0.07,0.738,0.312,0.738C12.705,20.254,12.775,19.924,12.775,19.516z"/>
</g>
<g>
	<path fill="#FFFFFF" d="M2.043,8.978h0.532V7.935c0-0.094,0.003-0.192,0.003-0.192H2.572c0,0-0.032,0.07-0.098,0.133l-0.15,0.137
		L1.97,7.633L2.646,7h0.529v1.978H3.71v0.525H2.043V8.978z"/>
</g>
<g>
	<path fill="#FFFFFF" d="M8.754,8.978h0.532V7.935c0-0.094,0.003-0.192,0.003-0.192H9.283c0,0-0.031,0.07-0.098,0.133L9.034,8.012
		L8.681,7.633L9.356,7h0.529v1.978h0.536v0.525H8.754V8.978z"/>
</g>
<g>
	<path fill="#FFFFFF" d="M14.832,8.978h0.531V7.935c0-0.094,0.004-0.192,0.004-0.192h-0.008c0,0-0.031,0.07-0.098,0.133l-0.15,0.137
		l-0.354-0.378L15.434,7h0.529v1.978h0.535v0.525h-1.666V8.978z"/>
</g>
</svg>
