<?xml version="1.0" encoding="utf-8"?>
<!-- Generator: Adobe Illustrator 15.1.0, SVG Export Plug-In . SVG Version: 6.00 Build 0)  -->
<!DOCTYPE svg PUBLIC "-//W3C//DTD SVG 1.1//EN" "http://www.w3.org/Graphics/SVG/1.1/DTD/svg11.dtd">
<svg version="1.1" id="Layer_1" xmlns="http://www.w3.org/2000/svg" xmlns:xlink="http://www.w3.org/1999/xlink" x="0px" y="0px"
	 width="26px" height="26px" viewBox="0 0 26 26" enable-background="new 0 0 26 26" xml:space="preserve">
<g>
	<path fill="#FFFFFF" d="M7.571,6.485c-2.876,2.876-2.876,7.556,0,10.433c2.876,2.876,7.557,2.876,10.433,0
		c2.877-2.877,2.877-7.557,0-10.433C15.128,3.608,10.447,3.608,7.571,6.485z M16.97,7.519c2.307,2.307,2.307,6.059,0,8.365
		c-2.306,2.307-6.059,2.307-8.365,0c-2.306-2.306-2.306-6.059,0-8.365S14.664,5.212,16.97,7.519z"/>
	<path fill="#FFFFFF" d="M25.963,22.342l-5.268-6.102c-0.189-0.189-1.128,0.558-1.97,1.399s-1.589,1.779-1.399,1.97l6.102,5.267
		c0.188,0.188,0.896-0.361,1.521-1.014C25.601,23.238,26.15,22.529,25.963,22.342z"/>
	<rect x="1.108" y="2" fill="#FFFFFF" width="13.082" height="0.812"/>
	<path fill="#FFFFFF" d="M0,5.344h7.623c0.378-0.308,0.78-0.579,1.202-0.812H0V5.344z"/>
	<path fill="#FFFFFF" d="M0,8.042h5.46c0.139-0.278,0.294-0.549,0.466-0.812H0V8.042z"/>
	<path fill="#FFFFFF" d="M0,10.739h4.658c0.032-0.272,0.078-0.543,0.137-0.812H0V10.739z"/>
	<path fill="#FFFFFF" d="M0,13.438h4.786c-0.058-0.269-0.102-0.54-0.133-0.812H0V13.438z"/>
	<path fill="#FFFFFF" d="M15.703,7.663c-0.572-0.414-1.222-0.7-1.913-0.84h-2.005c-0.95,0.192-1.821,0.657-2.52,1.356
		C9.179,8.266,9.097,8.356,9.018,8.448h6.686V7.663z"/>
	<path fill="#FFFFFF" d="M7.84,11.146h7.863V9.521H8.308C8.062,10.028,7.903,10.576,7.84,11.146z"/>
	<path fill="#FFFFFF" d="M8.29,13.843h7.414v-1.625H7.835C7.895,12.788,8.048,13.335,8.29,13.843z"/>
	<path fill="#FFFFFF" d="M9.265,15.223c0.657,0.658,1.467,1.107,2.35,1.318h2.346c0.627-0.15,1.218-0.422,1.743-0.802v-0.823H8.984
		C9.074,15.021,9.167,15.124,9.265,15.223z"/>
	<path fill="#FFFFFF" d="M0,16.135h5.901c-0.17-0.264-0.324-0.534-0.46-0.812H0V16.135z"/>
	<path fill="#FFFFFF" d="M0,18.833h8.755c-0.413-0.234-0.807-0.506-1.178-0.812H0V18.833z"/>
	<rect y="20.719" fill="#FFFFFF" width="15.297" height="0.811"/>
	<rect y="23.416" fill="#FFFFFF" width="15.297" height="0.812"/>
</g>
</svg>
