<?xml version="1.0" encoding="utf-8"?>
<!-- Generator: Adobe Illustrator 15.1.0, SVG Export Plug-In . SVG Version: 6.00 Build 0)  -->
<!DOCTYPE svg PUBLIC "-//W3C//DTD SVG 1.1//EN" "http://www.w3.org/Graphics/SVG/1.1/DTD/svg11.dtd">
<svg version="1.1" id="Layer_1" xmlns="http://www.w3.org/2000/svg" xmlns:xlink="http://www.w3.org/1999/xlink" x="0px" y="0px"
	 width="26px" height="26px" viewBox="0 0 26 26" enable-background="new 0 0 26 26" xml:space="preserve">
<g>
	<path fill="#FFFFFF" d="M19.928,1H6.072C2.722,1,0,3.722,0,7.07v12.225c0,3.353,2.722,6.069,6.072,6.069h13.855
		c3.354,0,6.072-2.717,6.072-6.069V7.07C26,3.722,23.281,1,19.928,1z M21.876,14.706h-2.51v2.906h-2.838v3.571H9.472v-3.571H6.636
		v-2.906H4.128v-9.52h17.748V14.706z"/>
	<rect x="5.194" y="5.771" fill="#FFFFFF" width="1.054" height="2.602"/>
	<rect x="7.352" y="5.771" fill="#FFFFFF" width="1.051" height="2.602"/>
	<rect x="9.414" y="5.771" fill="#FFFFFF" width="1.053" height="2.602"/>
	<rect x="11.571" y="5.771" fill="#FFFFFF" width="1.054" height="2.602"/>
	<rect x="13.857" y="5.771" fill="#FFFFFF" width="1.053" height="2.602"/>
	<rect x="16.013" y="5.771" fill="#FFFFFF" width="1.055" height="2.602"/>
	<rect x="18.076" y="5.771" fill="#FFFFFF" width="1.055" height="2.602"/>
	<rect x="20.233" y="5.771" fill="#FFFFFF" width="1.053" height="2.602"/>
</g>
</svg>
