<?xml version="1.0" encoding="utf-8"?>
<!-- Generator: Adobe Illustrator 15.1.0, SVG Export Plug-In . SVG Version: 6.00 Build 0)  -->
<!DOCTYPE svg PUBLIC "-//W3C//DTD SVG 1.1//EN" "http://www.w3.org/Graphics/SVG/1.1/DTD/svg11.dtd">
<svg version="1.1" id="Layer_1" xmlns="http://www.w3.org/2000/svg" xmlns:xlink="http://www.w3.org/1999/xlink" x="0px" y="0px"
	 width="26px" height="26px" viewBox="0 0 26 26" enable-background="new 0 0 26 26" xml:space="preserve">
<g>
	<g>
		<path fill="#FFFFFF" d="M20.188,4.714c-0.905,0-1.642-0.737-1.642-1.642c0-0.906,0.736-1.642,1.642-1.642s1.643,0.736,1.643,1.642
			C21.83,3.977,21.093,4.714,20.188,4.714z M20.188,1.93c-0.63,0-1.142,0.512-1.142,1.142c0,0.629,0.512,1.142,1.142,1.142
			s1.143-0.512,1.143-1.142C21.33,2.442,20.817,1.93,20.188,1.93z"/>
		<path fill="#FFFFFF" d="M19.528,13.926c-0.909,0-1.648-0.736-1.648-1.641c0-0.906,0.739-1.642,1.648-1.642
			s1.649,0.736,1.649,1.642C21.178,13.19,20.438,13.926,19.528,13.926z M19.528,11.143c-0.634,0-1.148,0.512-1.148,1.142
			c0,0.629,0.515,1.142,1.148,1.142c0.633,0,1.148-0.512,1.148-1.142C20.677,11.655,20.161,11.143,19.528,11.143z"/>
		<path fill="#FFFFFF" d="M22.812,21.261c-0.906,0-1.643-0.736-1.643-1.642s0.736-1.642,1.643-1.642
			c0.904,0,1.642,0.736,1.642,1.642S23.717,21.261,22.812,21.261z M22.812,18.478c-0.631,0-1.142,0.513-1.142,1.142
			c0,0.63,0.511,1.142,1.142,1.142c0.628,0,1.142-0.512,1.142-1.142C23.954,18.99,23.44,18.478,22.812,18.478z"/>
		<path fill="#FFFFFF" d="M7.51,6.105c-0.906,0-1.643-0.736-1.643-1.642c0-0.906,0.737-1.642,1.643-1.642
			c0.905,0,1.642,0.736,1.642,1.642C9.151,5.369,8.415,6.105,7.51,6.105z M7.51,3.322c-0.63,0-1.142,0.512-1.142,1.142
			S6.879,5.605,7.51,5.605c0.629,0,1.142-0.512,1.142-1.142S8.139,3.322,7.51,3.322z"/>
		<path fill="#FFFFFF" d="M13.19,16.119h-0.554V13.17c0.002-1.372-0.532-2.662-1.502-3.633c-0.949-0.95-2.204-1.481-3.542-1.503
			C7.568,8.032,7.55,8.028,7.521,8.031c-1.372,0-2.662,0.535-3.632,1.505c-0.971,0.971-1.506,2.262-1.505,3.633v2.949H1.829
			C0.819,16.119,0,16.938,0,17.947v5.445c0,1.009,0.819,1.829,1.829,1.829H13.19c1.01,0,1.829-0.82,1.829-1.829v-5.445
			C15.019,16.938,14.2,16.119,13.19,16.119z M3.883,13.17c0-0.971,0.378-1.884,1.066-2.573c0.67-0.67,1.556-1.046,2.5-1.065
			C7.466,9.533,7.483,9.533,7.5,9.533c0.001,0,0.004,0,0.006,0c0.969,0,1.881,0.378,2.566,1.064c0.688,0.687,1.064,1.6,1.062,2.571
			v2.95H3.883V13.17z M8.759,20.058c0,0.408-0.198,0.767-0.5,0.995v1.294c0,0.414-0.335,0.751-0.75,0.751
			c-0.415,0-0.75-0.337-0.75-0.751v-1.294c-0.302-0.229-0.5-0.587-0.5-0.995v-0.564c0-0.69,0.56-1.25,1.25-1.25
			c0.69,0,1.25,0.56,1.25,1.25V20.058z"/>
		<path fill="#FFFFFF" d="M6.382,6.277C6.089,6.094,5.846,5.842,5.671,5.544c-0.551,0.737-1.01,1.545-1.37,2.405
			c0.452-0.28,0.934-0.502,1.441-0.655C5.938,6.942,6.148,6.601,6.382,6.277z M9.871,12.034h-1.11
			c0.005-0.386,0.029-0.763,0.058-1.138c-0.156-0.091-0.32-0.164-0.492-0.22c-0.038,0.445-0.063,0.898-0.069,1.358H5.149
			c-0.077,0.161-0.138,0.328-0.181,0.5h3.289c0.012,0.893,0.091,1.756,0.221,2.585h0.504c-0.131-0.826-0.209-1.69-0.222-2.585h1.29
			C10.008,12.362,9.948,12.195,9.871,12.034z M22.183,3.834c-0.124,0.325-0.327,0.608-0.582,0.835
			c0.208,0.19,0.414,0.385,0.607,0.592c-0.626,0.404-1.315,0.757-2.065,1.045c-0.156-0.412-0.328-0.805-0.514-1.177
			c-0.286-0.078-0.545-0.212-0.771-0.392c0.307,0.524,0.585,1.099,0.822,1.729c-1.441,0.493-3.05,0.771-4.715,0.796v-5.25
			c0.447,0.011,0.887,0.054,1.319,0.12c0.677,0.327,1.305,0.863,1.863,1.56c-0.061-0.198-0.103-0.403-0.103-0.62
			c0-0.072,0.014-0.14,0.021-0.21c-0.15-0.156-0.303-0.305-0.46-0.44c0.169,0.049,0.334,0.107,0.499,0.165
			c0.08-0.342,0.244-0.649,0.467-0.907C17.369,1.24,16.07,1,14.716,1c-2.193,0-4.24,0.631-5.975,1.717
			c0.281,0.199,0.507,0.466,0.666,0.775c0.749-0.455,1.558-0.819,2.417-1.071c-1.035,0.888-1.91,2.235-2.536,3.886
			C9.138,6.25,9.001,6.178,8.856,6.116C8.702,6.242,8.535,6.354,8.348,6.434C8.602,6.553,8.851,6.675,9.12,6.778
			C9.072,6.92,9.035,7.074,8.991,7.22c0.16,0.04,0.319,0.084,0.476,0.137c0.042-0.138,0.076-0.284,0.121-0.418
			c1.495,0.511,3.159,0.798,4.877,0.824v4.271H13.53c0.031,0.166,0.056,0.333,0.073,0.5h0.862v2.9
			c0.178,0.091,0.348,0.192,0.501,0.317v-3.218h2.439c-0.011-0.083-0.025-0.164-0.025-0.25c0-0.085,0.015-0.167,0.025-0.25h-2.439
			V7.763c1.719-0.026,3.383-0.314,4.877-0.824c0.354,1.057,0.6,2.235,0.728,3.484c0.203,0.114,0.387,0.257,0.543,0.428
			c-0.112-1.465-0.387-2.845-0.803-4.073c0.815-0.312,1.562-0.698,2.238-1.142c1.474,1.735,2.38,3.962,2.438,6.398h-3.336
			c0.01,0.083,0.025,0.165,0.025,0.25c0,0.086-0.016,0.167-0.025,0.25h3.336c-0.044,1.853-0.58,3.583-1.481,5.067
			c0.325,0.114,0.617,0.297,0.851,0.541C25.399,16.435,26,14.428,26,12.285C26,8.924,24.522,5.904,22.183,3.834z M14.465,7.263
			C12.8,7.237,11.191,6.959,9.75,6.467c0.789-2.094,1.99-3.654,3.396-4.334c0.432-0.066,0.871-0.109,1.319-0.12V7.263z
			 M20.866,20.504c-0.969,0.729-2.066,1.294-3.259,1.645c1.034-0.888,1.909-2.236,2.534-3.886c0.275,0.104,0.532,0.229,0.791,0.351
			c0.08-0.15,0.176-0.29,0.289-0.416c-0.296-0.143-0.594-0.285-0.911-0.405c0.416-1.229,0.69-2.607,0.803-4.074
			c-0.156,0.171-0.34,0.314-0.543,0.428c-0.128,1.249-0.373,2.428-0.728,3.484c-1.253-0.428-2.629-0.688-4.054-0.781
			c0.069,0.164,0.125,0.333,0.162,0.51c1.312,0.099,2.575,0.349,3.729,0.743c-0.788,2.094-1.989,3.654-3.396,4.334
			c-0.088,0.014-0.178,0.021-0.266,0.033v0.923c0,0.031-0.004,0.062-0.005,0.093c2.041-0.234,3.92-1.01,5.482-2.188
			C21.229,21.087,21.01,20.818,20.866,20.504z"/>
	</g>
</g>
</svg>
