<?xml version="1.0" encoding="utf-8"?>
<!-- Generator: Adobe Illustrator 15.1.0, SVG Export Plug-In . SVG Version: 6.00 Build 0)  -->
<!DOCTYPE svg PUBLIC "-//W3C//DTD SVG 1.1//EN" "http://www.w3.org/Graphics/SVG/1.1/DTD/svg11.dtd">
<svg version="1.1" id="Layer_1" xmlns="http://www.w3.org/2000/svg" xmlns:xlink="http://www.w3.org/1999/xlink" x="0px" y="0px"
	 width="26px" height="26px" viewBox="0 0 26 26" enable-background="new 0 0 26 26" xml:space="preserve">
<g>
	<g id="XMLID_3_">
		<g>
			<path fill="#FFFFFF" d="M25.916,0.384v17.799c0,0.212-0.172,0.385-0.384,0.385h-5.018v-0.619h4.721V2.078h-0.93V1.625
				c0.313,0,0.568-0.254,0.568-0.568s-0.255-0.568-0.568-0.568V0h1.227C25.744,0,25.916,0.172,25.916,0.384z"/>
			<path fill="#FFFFFF" d="M9.984,0h14.322v0.488c-0.313,0-0.568,0.254-0.568,0.568s0.255,0.568,0.568,0.568v0.453H10.28v0.577H9.6
				V0.384C9.6,0.172,9.772,0,9.984,0z M20.515,1.625c0.315,0,0.569-0.254,0.569-0.568s-0.254-0.568-0.569-0.568
				c-0.313,0-0.567,0.254-0.567,0.568S20.201,1.625,20.515,1.625z M22.324,1.625c0.314,0,0.569-0.254,0.569-0.568
				s-0.255-0.568-0.569-0.568c-0.313,0-0.568,0.254-0.568,0.568S22.011,1.625,22.324,1.625z"/>
			<path fill="#FFFFFF" d="M19.96,3.755V25.53c0,0.26-0.211,0.47-0.472,0.47H0.468C0.208,26,0,25.79,0,25.53V3.755
				c0-0.26,0.208-0.47,0.468-0.47h19.02C19.749,3.285,19.96,3.495,19.96,3.755z M19.127,25.241V5.827H0.832v19.415H19.127z
				 M18.684,4.576c0-0.384-0.311-0.695-0.694-0.695c-0.385,0-0.695,0.311-0.695,0.695s0.311,0.695,0.695,0.695
				C18.373,5.271,18.684,4.96,18.684,4.576z M16.262,4.576c0-0.384-0.312-0.695-0.695-0.695c-0.385,0-0.695,0.311-0.695,0.695
				s0.311,0.695,0.695,0.695C15.95,5.271,16.262,4.96,16.262,4.576z M14.048,4.576c0-0.384-0.31-0.695-0.694-0.695
				c-0.385,0-0.695,0.311-0.695,0.695s0.311,0.695,0.695,0.695C13.738,5.271,14.048,4.96,14.048,4.576z"/>
			<rect x="17.58" y="21.101" fill="#FFFFFF" width="0.449" height="1.064"/>
			<rect x="17.549" y="17.212" fill="#FFFFFF" width="0.449" height="1.063"/>
			<rect x="17.483" y="13.175" fill="#FFFFFF" width="0.45" height="1.062"/>
			<rect x="17.452" y="9.284" fill="#FFFFFF" width="0.449" height="1.063"/>
			<rect x="16.622" y="21.101" fill="#FFFFFF" width="0.451" height="1.064"/>
			<rect x="16.593" y="17.212" fill="#FFFFFF" width="0.448" height="1.063"/>
			<rect x="16.527" y="13.175" fill="#FFFFFF" width="0.449" height="1.062"/>
			<rect x="16.496" y="9.284" fill="#FFFFFF" width="0.449" height="1.063"/>
			<rect x="15.679" y="21.101" fill="#FFFFFF" width="0.451" height="1.064"/>
			<rect x="15.646" y="17.212" fill="#FFFFFF" width="0.451" height="1.063"/>
			<rect x="15.582" y="13.175" fill="#FFFFFF" width="0.451" height="1.062"/>
			<rect x="15.552" y="9.284" fill="#FFFFFF" width="0.45" height="1.063"/>
			<rect x="14.624" y="21.101" fill="#FFFFFF" width="0.45" height="1.064"/>
			<rect x="14.595" y="17.212" fill="#FFFFFF" width="0.448" height="1.063"/>
			<rect x="14.527" y="13.175" fill="#FFFFFF" width="0.45" height="1.062"/>
			<rect x="14.498" y="9.284" fill="#FFFFFF" width="0.448" height="1.063"/>
			<rect x="13.648" y="21.101" fill="#FFFFFF" width="0.45" height="1.064"/>
			<rect x="13.617" y="17.212" fill="#FFFFFF" width="0.45" height="1.063"/>
			<rect x="13.552" y="13.175" fill="#FFFFFF" width="0.449" height="1.062"/>
			<rect x="13.52" y="9.284" fill="#FFFFFF" width="0.452" height="1.063"/>
			<rect x="12.692" y="21.101" fill="#FFFFFF" width="0.449" height="1.064"/>
			<rect x="12.661" y="17.212" fill="#FFFFFF" width="0.448" height="1.063"/>
			<rect x="12.596" y="13.175" fill="#FFFFFF" width="0.449" height="1.062"/>
			<rect x="12.564" y="9.284" fill="#FFFFFF" width="0.451" height="1.063"/>
			<rect x="11.746" y="21.101" fill="#FFFFFF" width="0.451" height="1.064"/>
			<rect x="11.716" y="17.212" fill="#FFFFFF" width="0.45" height="1.063"/>
			<rect x="11.652" y="13.175" fill="#FFFFFF" width="0.449" height="1.062"/>
			<rect x="11.62" y="9.284" fill="#FFFFFF" width="0.449" height="1.063"/>
			<rect x="10.694" y="21.101" fill="#FFFFFF" width="0.449" height="1.064"/>
			<rect x="10.662" y="17.212" fill="#FFFFFF" width="0.45" height="1.063"/>
			<rect x="10.598" y="13.175" fill="#FFFFFF" width="0.449" height="1.062"/>
			<rect x="10.566" y="9.284" fill="#FFFFFF" width="0.451" height="1.063"/>
			<rect x="9.738" y="21.101" fill="#FFFFFF" width="0.449" height="1.064"/>
			<rect x="9.706" y="17.212" fill="#FFFFFF" width="0.45" height="1.063"/>
			<rect x="9.641" y="13.175" fill="#FFFFFF" width="0.45" height="1.062"/>
			<rect x="9.609" y="9.284" fill="#FFFFFF" width="0.451" height="1.063"/>
			<rect x="8.792" y="21.101" fill="#FFFFFF" width="0.451" height="1.064"/>
			<rect x="8.762" y="17.212" fill="#FFFFFF" width="0.448" height="1.063"/>
			<rect x="8.695" y="13.175" fill="#FFFFFF" width="0.451" height="1.062"/>
			<rect x="8.666" y="9.284" fill="#FFFFFF" width="0.449" height="1.063"/>
			<rect x="7.616" y="21.812" fill="#FFFFFF" width="0.451" height="0.341"/>
			<rect x="7.616" y="21.101" fill="#FFFFFF" width="0.451" height="0.339"/>
			<rect x="7.586" y="17.923" fill="#FFFFFF" width="0.449" height="0.338"/>
			<rect x="7.586" y="17.212" fill="#FFFFFF" width="0.449" height="0.338"/>
			<rect x="7.52" y="13.887" fill="#FFFFFF" width="0.451" height="0.336"/>
			<rect x="7.52" y="13.175" fill="#FFFFFF" width="0.451" height="0.34"/>
			<rect x="7.49" y="9.994" fill="#FFFFFF" width="0.449" height="0.34"/>
			<rect x="7.49" y="9.284" fill="#FFFFFF" width="0.449" height="0.34"/>
			<path fill="#FFFFFF" d="M6.555,21.388c0-0.275-0.147-0.516-0.361-0.633V20.24c0.444,0.13,0.769,0.539,0.769,1.025v0.736
				c0,0.486-0.325,0.895-0.769,1.024v-0.515c0.214-0.117,0.361-0.355,0.361-0.633V21.388z"/>
			<path fill="#FFFFFF" d="M6.523,17.987v-0.489c0-0.276-0.146-0.518-0.362-0.636v-0.514c0.444,0.13,0.769,0.54,0.769,1.026v0.736
				c0,0.485-0.324,0.896-0.769,1.025v-0.513C6.377,18.505,6.523,18.264,6.523,17.987z"/>
			<path fill="#FFFFFF" d="M6.458,13.461c0-0.277-0.147-0.516-0.362-0.634v-0.515c0.444,0.129,0.769,0.54,0.769,1.025v0.736
				c0,0.487-0.325,0.896-0.769,1.025v-0.514c0.214-0.117,0.362-0.357,0.362-0.635V13.461z"/>
			<path fill="#FFFFFF" d="M6.428,9.571c0-0.277-0.147-0.518-0.363-0.635V8.421c0.446,0.13,0.77,0.541,0.77,1.027v0.735
				c0,0.486-0.324,0.896-0.77,1.026v-0.514c0.216-0.116,0.363-0.358,0.363-0.636V9.571z"/>
			<rect x="5.136" y="21.101" fill="#FFFFFF" width="0.449" height="1.064"/>
			<rect x="5.104" y="17.212" fill="#FFFFFF" width="0.449" height="1.063"/>
			<rect x="5.039" y="13.175" fill="#FFFFFF" width="0.449" height="1.062"/>
			<rect x="5.007" y="9.284" fill="#FFFFFF" width="0.451" height="1.063"/>
			<rect x="4.18" y="21.101" fill="#FFFFFF" width="0.448" height="1.064"/>
			<rect x="4.148" y="17.212" fill="#FFFFFF" width="0.449" height="1.063"/>
			<rect x="4.083" y="13.175" fill="#FFFFFF" width="0.449" height="1.062"/>
			<rect x="4.051" y="9.284" fill="#FFFFFF" width="0.451" height="1.063"/>
			<rect x="3.234" y="21.101" fill="#FFFFFF" width="0.451" height="1.064"/>
			<rect x="3.204" y="17.212" fill="#FFFFFF" width="0.449" height="1.063"/>
			<rect x="3.139" y="13.175" fill="#FFFFFF" width="0.449" height="1.062"/>
			<rect x="3.107" y="9.284" fill="#FFFFFF" width="0.449" height="1.063"/>
			<path fill="#FFFFFF" d="M1.832,21.266c0-0.486,0.325-0.896,0.77-1.025v0.515c-0.215,0.117-0.363,0.357-0.363,0.633v0.491
				c0,0.277,0.147,0.516,0.363,0.633v0.515c-0.445-0.13-0.77-0.538-0.77-1.024V21.266z"/>
			<path fill="#FFFFFF" d="M1.801,18.111v-0.736c0-0.486,0.325-0.896,0.769-1.026v0.514c-0.213,0.118-0.361,0.359-0.361,0.636v0.489
				c0,0.276,0.147,0.518,0.361,0.637v0.513C2.126,19.007,1.801,18.597,1.801,18.111z"/>
			<path fill="#FFFFFF" d="M1.737,14.073v-0.736c0-0.486,0.324-0.896,0.768-1.025v0.515c-0.216,0.118-0.361,0.356-0.361,0.634v0.489
				c0,0.277,0.146,0.518,0.361,0.635v0.514C2.062,14.97,1.737,14.561,1.737,14.073z"/>
			<path fill="#FFFFFF" d="M2.112,9.571v0.489c0,0.278,0.147,0.52,0.361,0.636v0.514c-0.444-0.13-0.768-0.54-0.768-1.026V9.448
				c0-0.486,0.324-0.896,0.768-1.027v0.514C2.26,9.053,2.112,9.294,2.112,9.571z"/>
		</g>
	</g>
</g>
</svg>
