<?xml version="1.0" encoding="utf-8"?>
<!-- Generator: Adobe Illustrator 15.1.0, SVG Export Plug-In . SVG Version: 6.00 Build 0)  -->
<!DOCTYPE svg PUBLIC "-//W3C//DTD SVG 1.1//EN" "http://www.w3.org/Graphics/SVG/1.1/DTD/svg11.dtd">
<svg version="1.1" id="Layer_1" xmlns="http://www.w3.org/2000/svg" xmlns:xlink="http://www.w3.org/1999/xlink" x="0px" y="0px"
	 width="26px" height="26px" viewBox="0 0 26 26" enable-background="new 0 0 26 26" xml:space="preserve">
<g>
	<path fill="#FFFFFF" d="M6.364,10.813c0.791-2.391,2.851-4.275,5.505-4.711c0.16-0.026,0.318-0.046,0.476-0.061l2.731-2.868
		l-2.768-3.154c-0.47,0.026-0.94,0.077-1.411,0.154c-1.73,0.284-3.355,0.899-4.828,1.829C4.646,2.898,3.427,4.047,2.443,5.417
		C1.639,6.536,1.026,7.757,0.612,9.057l3.896-1.674L6.364,10.813z"/>
	<path fill="#FFFFFF" d="M8.873,18.635c-1.427-1.044-2.462-2.626-2.771-4.505c-0.149-0.91-0.114-1.809,0.077-2.658L4.296,7.989
		L0.439,9.647C0.413,9.746,0.388,9.845,0.364,9.944c-0.41,1.693-0.474,3.429-0.19,5.159c0.284,1.729,0.899,3.354,1.828,4.827
		c0.897,1.422,2.046,2.642,3.417,3.626c0,0.001,0.002,0.002,0.003,0.002L5.033,19.34L8.873,18.635z"/>
	<path fill="#FFFFFF" d="M13.029,6.01c2.782,0.01,5.295,1.691,6.386,4.216l3.57,1.71l2.146-3.608
		c-0.303-0.787-0.68-1.542-1.135-2.261c-0.896-1.421-2.046-2.641-3.416-3.625s-2.893-1.684-4.526-2.08
		c-1.031-0.25-2.08-0.37-3.133-0.363l2.796,3.187L13.029,6.01z"/>
	<path fill="#FFFFFF" d="M17.083,18.669c-0.849,0.614-1.85,1.046-2.952,1.227c-1.681,0.276-3.323-0.076-4.686-0.884l-3.9,0.717
		l0.385,4.177c1.234,0.803,2.582,1.384,4.015,1.73c1.693,0.409,3.429,0.473,5.159,0.189c1.73-0.283,3.354-0.898,4.828-1.828
		c0.264-0.167,0.521-0.343,0.772-0.526l-4.135-0.936L17.083,18.669z"/>
	<path fill="#FFFFFF" d="M25.339,8.908l-2.166,3.644l-3.517-1.684c0.103,0.322,0.184,0.656,0.24,1
		c0.404,2.458-0.535,4.832-2.276,6.372l-0.524,3.929l4.095,0.925c0.894-0.726,1.687-1.566,2.366-2.513
		c0.983-1.37,1.684-2.894,2.079-4.526c0.41-1.693,0.474-3.429,0.19-5.159C25.715,10.216,25.552,9.552,25.339,8.908z"/>
</g>
</svg>
