<?xml version="1.0" encoding="utf-8"?>
<!-- Generator: Adobe Illustrator 15.1.0, SVG Export Plug-In . SVG Version: 6.00 Build 0)  -->
<!DOCTYPE svg PUBLIC "-//W3C//DTD SVG 1.1//EN" "http://www.w3.org/Graphics/SVG/1.1/DTD/svg11.dtd">
<svg version="1.1" id="Layer_1" xmlns="http://www.w3.org/2000/svg" xmlns:xlink="http://www.w3.org/1999/xlink" x="0px" y="0px"
	 width="698.4px" height="144px" viewBox="0 0 698.4 144" enable-background="new 0 0 698.4 144" xml:space="preserve">
<g>
	<path fill="#FEE72B" d="M95.964,80.644v14.914c0,12.752-4.571,23.82-13.713,32.961c-9.143,8.182-20.209,12.269-32.719,12.269
		c-12.751,0-23.818-4.087-32.96-12.269c-9.143-9.141-13.714-19.968-13.714-32.961V0.528h11.068v51.243
		c4.33-5.293,9.623-9.625,15.637-12.75c6.256-3.127,12.75-4.812,19.97-4.812c12.75,0,23.817,4.569,32.959,13.713
		C91.393,56.824,95.964,67.652,95.964,80.644z M84.897,80.644c0-9.866-3.608-18.045-10.586-25.024
		c-6.976-6.973-15.156-10.584-25.02-10.584c-9.864,0-18.044,3.611-25.021,10.584c-6.977,6.979-10.586,15.158-10.586,25.024v14.914
		c0,9.863,3.609,18.284,10.586,25.261c7.217,6.98,15.637,10.35,25.021,10.35c9.863,0,18.043-3.613,25.02-10.589
		c6.978-6.977,10.586-15.397,10.586-25.021V80.644z"/>
	<path fill="#FEE72B" d="M117.857,0.528v119.81c0,6.014,2.887,8.901,8.902,8.901h1.924v11.069h-2.166
		c-5.532,0-10.345-1.926-14.194-5.773c-3.849-3.852-5.533-8.421-5.533-14.197V0.528H117.857z"/>
	<path fill="#FEE72B" d="M214.09,127.315c-9.143,8.903-20.449,13.232-33.682,13.232c-12.75,0-23.817-4.092-32.959-12.269
		c-9.143-9.145-13.713-19.97-13.713-32.961V80.401c0-12.749,4.57-23.577,13.713-32.719c9.142-9.14,20.209-13.712,32.959-13.712
		c12.751,0,23.578,4.572,32.72,13.712c9.143,8.901,13.713,19.97,13.713,32.961v12.99h-82.038v1.924
		c0,9.863,3.608,18.284,10.586,25.261c7.217,6.98,15.637,10.35,25.02,10.35c10.105,0,18.767-3.853,25.983-11.553L214.09,127.315z
		 M215.774,82.328v-1.927c0-9.861-3.608-18.045-10.585-25.02c-6.976-6.979-15.156-10.586-25.021-10.586
		c-9.864,0-18.043,3.607-25.021,10.586c-6.977,6.975-10.585,15.158-10.585,25.02v1.927H215.774z"/>
	<rect x="157.793" y="1.73" fill="#FEE72B" width="13.473" height="15.639"/>
	<rect x="193.159" y="1.73" fill="#FEE72B" width="13.473" height="15.639"/>
	<path fill="#FEE72B" d="M233.337,128.279l8.902-6.496c3.127,4.331,7.458,6.976,12.751,7.7c5.532,0.96,10.585,0,15.157-3.369
		c4.57-3.131,7.458-7.7,8.422-13.235c1.44-8.178-0.244-13.953-4.574-17.321c-2.165-1.685-4.57-3.369-6.977-5.052
		c-2.406-1.685-5.052-3.125-7.938-4.572c-2.888-1.44-5.294-3.125-7.699-4.81c-2.406-1.685-4.812-3.611-6.736-5.776
		c-4.332-4.087-5.534-11.064-4.09-20.208c1.202-6.977,4.57-12.749,10.344-16.841c5.774-4.088,12.271-5.532,19.487-4.572
		c7.458,1.447,13.234,5.295,17.323,11.069l-8.904,6.255c-2.645-3.608-6.013-5.773-10.104-6.497
		c-4.089-0.723-7.938,0.241-11.306,2.408c-3.368,2.404-5.293,5.532-6.015,9.621c-0.962,6.736,0.722,11.789,5.053,14.917
		c4.33,2.888,9.382,6.013,14.915,8.901c5.536,3.127,10.588,6.979,14.677,11.787c4.332,4.812,5.533,12.271,3.849,22.375
		c-1.444,8.663-5.773,15.398-12.753,20.208c-6.975,3.611-14.673,5.053-23.333,4.572
		C245.366,139.104,238.629,135.255,233.337,128.279z"/>
	<path fill="#FEE72B" d="M302.146,0.528h11.065v99.36l63.755-63.755h15.877L340.88,88.102l52.444,52.207h-15.877L333.18,95.802
		l-19.728,19.725v24.541h-11.069V0.528H302.146z"/>
</g>
<g>
	<path fill="#FFFFFF" d="M440.482,79.197h-3.852V59.231c0-3.368-1.201-6.016-3.608-8.42c-2.405-2.409-5.053-3.612-8.421-3.612
		s-6.013,1.204-8.42,3.612c-2.405,2.405-3.369,5.052-3.369,8.42v19.966h-3.608V59.231c0-4.333,1.444-7.941,4.572-11.069
		s6.736-4.568,11.065-4.568c4.332,0,7.94,1.44,11.068,4.568s4.572,6.736,4.572,11.069V79.197z"/>
	<path fill="#FFFFFF" d="M471.516,74.869c-3.127,2.887-6.976,4.57-11.309,4.57c-4.328,0-7.937-1.443-11.064-4.092
		c-3.128-3.125-4.572-6.735-4.572-11.064v-5.052c0-4.333,1.444-7.941,4.572-11.069s6.736-4.568,11.064-4.568
		c4.333,0,7.941,1.44,11.068,4.568c3.129,3.127,4.572,6.736,4.572,11.069v4.329h-27.669v0.723c0,3.369,1.204,6.257,3.608,8.421
		c2.407,2.404,5.293,3.368,8.42,3.368c3.368,0,6.257-1.203,8.661-3.85L471.516,74.869z M471.997,59.711v-0.724
		c0-3.368-1.201-6.013-3.608-8.42c-2.405-2.405-5.053-3.605-8.421-3.605c-3.369,0-6.013,1.201-8.42,3.605
		c-2.405,2.407-3.608,5.052-3.608,8.42v0.724H471.997z"/>
	<path fill="#FFFFFF" d="M486.673,35.895v8.179h5.532v3.608h-5.532V72.46c0,1.928,0.964,3.132,2.888,3.132h1.925v3.605h-1.925
		c-1.924,0-3.368-0.72-4.812-1.921c-1.203-1.204-1.924-2.889-1.924-4.816V47.682h-5.535v-3.608h5.535v-8.179H486.673z"/>
	<path fill="#FFFFFF" d="M520.114,48.646l-9.144,30.551h-3.608l-12.749-35.124h3.849l10.584,29.111l8.661-29.111h4.572l8.66,29.111
		l10.588-29.111h4.088l-12.752,35.124h-3.608L520.114,48.646z"/>
	<path fill="#FFFFFF" d="M580.262,59.231v5.052c0,4.329-1.443,7.939-4.573,11.064c-3.128,2.889-6.735,4.092-11.067,4.092
		c-4.328,0-7.937-1.443-11.064-4.092c-3.129-3.125-4.572-6.735-4.572-11.064v-5.052c0-4.333,1.443-7.941,4.572-11.069
		c3.128-3.127,6.736-4.568,11.064-4.568c4.332,0,7.939,1.44,11.067,4.568C578.818,51.051,580.262,54.898,580.262,59.231z
		 M576.41,59.231c0-3.368-1.2-6.016-3.608-8.42c-2.404-2.409-5.053-3.612-8.42-3.612c-3.369,0-6.013,1.204-8.421,3.612
		c-2.404,2.405-3.608,5.052-3.608,8.42v5.052c0,3.369,1.204,6.257,3.608,8.421c2.408,2.404,5.292,3.368,8.421,3.368
		c3.367,0,6.016-1.203,8.42-3.612c2.408-2.403,3.608-5.288,3.608-8.421V59.231z"/>
	<path fill="#FFFFFF" d="M583.869,79.197V59.231c0-4.333,1.445-7.941,4.57-11.069c3.127-3.127,6.735-4.568,11.067-4.568
		c4.333,0,8.181,1.683,11.309,5.051l-2.648,2.644c-2.403-2.644-5.292-3.848-8.66-3.848c-3.369,0-6.016,1.204-8.421,3.608
		c-2.404,2.404-3.608,5.052-3.608,8.421v19.968h-3.608V79.197z"/>
	<path fill="#FFFFFF" d="M613.459,32.042h3.608v33.445l21.653-21.414h5.293l-17.562,17.563l17.562,17.561h-5.293l-14.917-14.914
		l-6.736,6.736v8.42h-3.608V32.042z"/>
	<path fill="#FFFFFF" d="M433.262,131.168h-3.608v-23.821c0-2.165-0.72-4.328-2.403-5.773c-1.685-1.685-3.608-2.404-5.776-2.404
		c-2.165,0-4.329,0.72-5.772,2.404c-1.684,1.685-2.408,3.608-2.408,5.773v23.821h-3.608v-23.821c0-3.125,1.204-6.013,3.368-8.421
		c2.168-2.404,5.053-3.607,8.421-3.607c2.168,0,4.092,0.483,5.776,1.443c1.684,0.961,3.127,2.407,4.328,4.092
		c0.964-1.685,2.407-3.131,4.332-4.092c1.684-0.96,3.848-1.443,5.772-1.443c3.368,0,6.017,1.203,8.42,3.607
		c2.408,2.408,3.608,5.296,3.369,8.421v23.821h-3.849v-24.062c0-2.163-0.964-4.087-2.405-5.771
		c-1.684-1.685-3.368-2.408-5.775-2.408c-2.164,0-4.089,0.724-5.772,2.408c-1.685,1.44-2.408,3.367-2.408,5.771V131.168
		L433.262,131.168z"/>
	<path fill="#FFFFFF" d="M488.838,110.958v5.052c0,4.328-1.444,7.937-4.569,11.065c-3.128,2.887-6.736,4.093-11.068,4.093
		s-7.94-1.448-11.068-4.093c-3.125-3.129-4.568-6.737-4.568-11.065v-5.052c0-4.332,1.443-7.939,4.568-11.069
		c3.128-3.127,6.736-4.57,11.068-4.57s7.94,1.443,11.068,4.57C487.394,103.019,488.838,106.626,488.838,110.958z M485.229,110.958
		c0-3.369-1.204-6.016-3.608-8.421c-2.405-2.407-5.053-3.611-8.421-3.611s-6.017,1.204-8.42,3.611
		c-2.405,2.405-3.608,5.052-3.608,8.421v5.052c0,3.368,1.203,6.252,3.608,8.42c2.403,2.405,5.292,3.369,8.42,3.369
		c3.368,0,6.016-1.204,8.421-3.611c2.404-2.404,3.608-5.293,3.608-8.42V110.958z"/>
	<path fill="#FFFFFF" d="M524.203,131.168h-3.849v-19.974c0-3.368-1.204-6.013-3.608-8.42c-2.408-2.405-5.052-3.605-8.42-3.605
		s-6.017,1.2-8.421,3.605c-2.408,2.407-3.367,5.052-3.367,8.42v19.974h-3.849v-19.974c0-4.328,1.44-7.937,4.568-11.064
		c3.128-3.129,6.736-4.572,11.068-4.572c4.328,0,7.94,1.443,11.065,4.572c3.128,3.128,4.571,6.736,4.571,11.064v19.974H524.203z"/>
	<path fill="#FFFFFF" d="M533.347,84.013v6.252h-3.852v-6.252H533.347z M533.347,96.038v35.13h-3.852v-35.13H533.347z"/>
	<path fill="#FFFFFF" d="M546.096,87.86v8.178h5.537v3.611h-5.537v24.78c0,1.922,0.965,3.125,2.889,3.125h1.924v3.613h-1.924
		c-1.924,0-3.369-0.725-4.812-1.929c-1.203-1.204-1.924-2.888-1.924-4.81v-24.78h-5.532v-3.611h5.532V87.86H546.096z"/>
	<path fill="#FFFFFF" d="M585.794,110.958v5.052c0,4.328-1.443,7.937-4.571,11.065c-3.129,2.887-6.737,4.093-11.066,4.093
		c-4.331,0-7.939-1.448-11.067-4.093c-3.128-3.129-4.572-6.737-4.572-11.065v-5.052c0-4.332,1.444-7.939,4.572-11.069
		c3.128-3.127,6.736-4.57,11.067-4.57c4.329,0,7.938,1.443,11.066,4.57C584.109,103.019,585.794,106.626,585.794,110.958z
		 M581.945,110.958c0-3.369-1.203-6.016-3.611-8.421c-2.404-2.407-5.053-3.611-8.42-3.611c-3.369,0-6.013,1.204-8.421,3.611
		c-2.404,2.405-3.608,5.052-3.608,8.421v5.052c0,3.368,1.204,6.252,3.608,8.42c2.408,2.405,5.296,3.369,8.421,3.369
		c3.367,0,6.016-1.204,8.42-3.611c2.408-2.404,3.611-5.293,3.611-8.42V110.958z"/>
	<path fill="#FFFFFF" d="M589.402,131.168v-19.974c0-4.328,1.444-7.937,4.572-11.064c3.127-3.129,6.735-4.572,11.064-4.572
		c4.333,0,8.181,1.685,11.309,5.052l-2.647,2.648c-2.404-2.648-5.292-3.853-8.661-3.853c-3.367,0-6.013,1.204-8.421,3.613
		c-2.404,2.402-3.608,5.051-3.608,8.42v19.966h-3.607V131.168z"/>
	<path fill="#FFFFFF" d="M623.804,84.013v6.252h-3.848v-6.252H623.804z M623.804,96.038v35.13h-3.848v-35.13H623.804z"/>
	<path fill="#FFFFFF" d="M660.614,131.168h-3.848v-19.974c0-3.368-1.205-6.013-3.608-8.42c-2.409-2.405-5.053-3.605-8.42-3.605
		c-3.369,0-6.018,1.2-8.421,3.605c-2.409,2.407-3.368,5.052-3.368,8.42v19.974h-3.849v-19.974c0-4.328,1.44-7.937,4.568-11.064
		c3.128-3.129,6.736-4.572,11.069-4.572c4.328,0,7.939,1.443,11.064,4.572c3.128,3.128,4.572,6.736,4.572,11.064v19.974H660.614z"/>
	<path fill="#FFFFFF" d="M695.5,110.958v5.052v11.306c0,3.853-1.443,7.456-4.572,10.588c-3.128,3.125-6.736,4.568-11.064,4.568
		c-4.573,0-8.421-1.685-11.309-5.052l2.648-2.648c2.404,2.648,5.291,3.853,8.66,3.853c3.368,0,6.013-1.204,8.42-3.608
		c2.404-2.165,3.608-4.812,3.608-7.94v-1.205c-1.443,1.685-3.128,2.889-5.293,3.85c-2.166,0.964-4.331,1.204-6.735,1.204
		c-4.332,0-7.94-1.44-11.068-4.089c-3.129-3.128-4.572-6.736-4.572-11.067v-5.054c0-4.328,1.443-7.939,4.572-11.064
		c3.128-3.128,6.736-4.572,11.068-4.572c4.328,0,7.937,1.444,11.064,4.572C694.057,103.019,695.5,106.626,695.5,110.958z
		 M691.892,110.958c0-3.369-1.204-6.016-3.608-8.421c-2.407-2.407-5.052-3.611-8.42-3.611c-3.369,0-6.017,1.204-8.421,3.611
		c-2.407,2.405-3.608,5.052-3.608,8.421v5.052c0,3.368,1.201,6.252,3.608,8.42c2.404,2.405,5.293,3.369,8.421,3.369
		c3.368,0,6.013-1.204,8.42-3.611c2.404-2.404,3.608-5.293,3.608-8.42V110.958z"/>
</g>
</svg>
